<svg width="219" height="224" viewBox="0 0 219 224" fill="none" xmlns="http://www.w3.org/2000/svg">
<path d="M107 1.52588e-05C136.704 1.39604e-05 165.192 11.8 186.196 32.804C207.2 53.8081 219 82.2958 219 112C219 141.704 207.2 170.192 186.196 191.196C165.192 212.2 136.704 224 107 224L107 112L107 1.52588e-05Z" fill="#FE6C45"/>
<path d="M0.500015 15C26.3586 15 51.1581 25.2723 69.4429 43.5571C87.7277 61.8419 98 86.6414 98 112.5C98 138.359 87.7277 163.158 69.4429 181.443C51.1582 199.728 26.3586 210 0.500039 210L0.50002 112.5L0.500015 15Z" fill="#FE6C45"/>
</svg>
